<svg version="1" xmlns="http://www.w3.org/2000/svg" width="682.667" height="682.667" viewBox="0 0 512.000000 512.000000"><path d="M121.4 78.2c-.4.5-.6 184.5-.4 339.4v17.1l3.8-.2c2-.1 4.5.2 5.6.7 1 .6 1.6.6 1.3.1-.7-1 20.3-1.1 22 0 .6.4 1.4.3 1.8-.3.3-.5 1.3-1 2.1-1 .9 0 1.2.5.8 1.1-.4.8-.1.8 1.4 0 1.2-.6 2.7-1 3.4-.9.9.2 1.3-1.7 1.3-7.2 0-4.1.4-8 .8-8.7.4-.6.4-1.4 0-1.6-1-.6-.9-26.9.1-28.5.4-.6.4-1.2-.1-1.2-1 0-1-21.6 0-22.6.3-.4.3-1.4-.1-2.3-.7-1.4-.8-28.6-.2-30.1.1-.3.1-1 0-1.5-.9-3.2-.4-49.1.5-49.7.6-.5.6-.8 0-.8-1.1 0-1.4-50.5-.2-51.6.3-.4.3-1.4-.1-2.3-1-1.9-.9-52.7.1-53.7.3-.4.3-1.4-.1-2.3-1-1.9-.9-28.8.1-29.7.3-.4.3-1.4-.1-2.3-.5-.9-.8-14.6-.7-30.4.1-18.9-.3-29.1-1-29.5-1.4-.9-41.6-.9-42.1 0zM184.2 77.8c-.7.2-1.2 1.3-1.2 2.3 0 1.3-.4 1.8-1.2 1.3-.7-.5-.8-.3-.2.7 1.3 2.1 1.3 6.2 0 7.8-.6.9-.7 1.2 0 .9 1.4-.9 1.4 26.4-.1 27.4-.6.5-.5.8.3.8.7 0 1 .4.7 1-.3.5-.1 1 .5 1s.8.5.4 1.2c-.6 1-.5 1 .8.1.8-.7 1.7-1.1 1.9-.8.4.3 12.5 1.4 19.7 1.8.6 0 1.2.3 1.2.6s1.9.6 4.3.7c2.3 0 6.2.4 8.7.7 2.5.4 6.1 1 8 1.2 3.8.5 7.5 1.3 7.5 1.5 0 .1 1.5.3 3.4.5 6.2.7 22 4.8 21.5 5.6-.3.5.2.6 1 .3 1.4-.5 18 3.8 21.6 5.7.8.4 4.4 1.7 8 2.9 13.9 4.7 37.1 16.9 48.6 25.5 12.5 9.3 15.7 12.3 14.8 13.7-.5.7-.2.8.5.3 1.6-1 10.5 8 9.5 9.6-.4.7-.3.9.4.5 1.3-.8 5.4 4.3 4.5 5.7-.3.6-.1.7.5.3.6-.4 1.6.4 2.3 1.6.7 1.3 1.5 2.5 1.8 2.8.8.7 2.9 4.4 5.9 10.2 1.9 3.9 2.9 4.8 5 4.9 2.4 0 33.4 0 43.3-.1h3.7l-1.8-5.8c-1-3.1-2.3-7.1-3-8.7-.6-1.7-1.1-3.1-1.1-3.2 0-.1-2-4.3-4.5-9.3-4.7-9.6-12-21.1-18.7-29.5-4.9-6.1-19.7-20.9-25.1-25-2.2-1.7-5.1-3.9-6.5-5.1-11.9-9.6-38-23.3-58.6-30.9-5.5-2-10.7-3.9-11.5-4.2-.8-.4-1.7-.7-2-.7-3-.7-10.9-3-12.5-3.6-3.1-1.3-22.5-5.8-28-6.5-2.7-.4-5.3-.9-5.6-1.1-1-.6-7.1-1.6-16.4-2.8-2.2-.3-6-.8-8.5-1.1-4.3-.6-8.8-1-21.5-2.1-8.8-.7-21-1.1-22.3-.6z"/><path d="M287 145.9c0 .6.4 1.3 1 1.6.6.3.7-.1.4-.9-.7-1.8-1.4-2.1-1.4-.7zM182.6 244.5c0 6.2-.3 10.3-1 10.7-.8.5-.8.8 0 .8 1.2 0 1.3 15.4.1 16.6-.4.4-.2 1.3.4 2 .6.8.9 2 .6 2.8-.5 1.2 2 1.5 15.6 1.6H217c1.4-.1 32.1-.2 68.2-.3 43.1-.1 65.9.1 66.2.8.3.7.5.7.5 0 .1-.7 14-1 40-.9l39.9.1-.1-7.7c0-4.2.3-8.2.7-8.9.4-.6.4-1.1-.1-1.1-.9 0-.8-11.2.1-13.5.3-.8.2-1.6-.2-1.9-.4-.2-.6-2.7-.5-5.5.2-2.8 0-5.2-.4-5.2-.5-.1-56.6-.2-124.8-.3l-124-.2.1 10.1zM386 283.4c0 .2.8 1 1.8 1.7 1.5 1.3 1.6 1.2.3-.4s-2.1-2.1-2.1-1.3zM380.9 296.8c-3.7 7.5-9.4 16-10.2 15.5-.6-.3-.7-.1-.3.5 1.1 1.8-11.6 15.6-23.1 24.7-10.8 8.8-11.8 9.5-13 9.5-.7 0-1.3.4-1.3 1 0 .5-.7 1-1.5 1s-1.5.3-1.5.7c0 1.2-5.2 3.3-6.3 2.6-.6-.3-.7-.1-.3.5.7 1.2-18.7 11.6-19.8 10.5-.3-.4-.6-.1-.6.5 0 .7-.5 1.2-1.1 1.2-.6 0-2.5.6-4.2 1.4-3.2 1.4-6.3 2.6-8.2 3.2-.5.2-5.9 2-12 3.9-13.6 4.5-16.3 5.3-19.5 5.9-1.4.2-4.5.9-7 1.6-6.7 1.7-11.1 2.4-14.7 2.5-1.7 0-2.9.3-2.7.6.3.5-9.6 2.2-20.1 3.4-2.2.3-5.1.7-6.5 1-3.1.6-18.7 1.8-21.5 1.7-2.5-.1-3.4 1.4-2.9 4.6.3 1.3 0 3-.6 3.7-.8.9-.8 1.5 0 2 1.3.8 1 7.5-.4 9.4-.8 1.1-.8 1.3 0 .8.7-.4 1 2.8 1 10.4-.1 6-.5 10.9-.9 10.9-.5 0-.2.6.5 1.4 1.3 1.3 12 1.4 23.6.2 3.1-.3 4-.1 3.5.7-.4.7 0 .6 1-.2.9-.7 2.8-1.1 4.2-.9 1.4.3 2.5.2 2.5-.1 0-.4 1-.7 2.3-.8 1.2 0 5.1-.4 8.7-.8 3.6-.4 8.4-.9 10.6-1 2.3-.1 4.6-.5 5.1-.8.6-.4 3-.9 5.4-1.2 2.4-.3 6.1-1 8.2-1.6 2.2-.6 4.5-.8 5.3-.5.8.3 1.4.2 1.4-.2 0-.7 10.8-3.4 15-3.8.9 0 2.6-.6 3.8-1.3 1.2-.6 2.2-.9 2.2-.7 0 .3 1.9-.2 4.2-1 2.3-.8 4.8-1.2 5.6-.9.7.2 1 0 .7-.5-.3-.6.2-1.1 1.2-1.2 3-.2 3.7-.4 7.7-2.1 2.1-.9 4.2-1.7 4.6-1.7 1.4 0 20.5-8.1 27.3-11.6 3.7-1.9 7.3-3.2 7.9-2.8.6.4.8.3.5-.3-.3-.5.8-1.7 2.6-2.6 3.3-1.8 3.9-2.1 12.4-7.4 2.8-1.8 5.4-3.3 5.7-3.3.2 0 2-1.4 3.8-3 1.8-1.7 3.9-2.8 4.6-2.5.7.3 1.1.1.8-.4-.3-.5 1.1-2.1 3.2-3.7 2-1.5 3.9-3.1 4.2-3.4.3-.3 4-3.8 8.2-7.8 4.2-4 7.4-7.2 7-7.2-.4 0 0-.6.9-1.3.8-.7 3.9-4.4 6.8-8.2 2.9-3.9 5.8-7.7 6.4-8.5 2.9-3.7 13.5-24.1 15-28.6.4-1.1 1.7-5.2 3.1-9.2l2.4-7.2h-49.6l-1.3 2.8z"/></svg>